# xmcd CD database file
#
# Track frame offsets:
#	300
#	13757
#	34042
#	53300
#	66630
#	86100
#	102051
#	117401
#	134549
#	148894
#	161620
#	181721
#
# Disc length: 2654 seconds
#
# Revision: 0
# Processed by: cddbd v1.4PL0 Copyright (c) Steve Scherf et al.
# Submitted via: CdAid (MTCDDB.DLL V2003.01.23)
#
DISCID=a60a5a0c
DTITLE=Various Artist - Pickin' On Aerosmith
DYEAR=2002
DGENRE=Bluegrass
TTITLE0=Same Old Song And Dance
TTITLE1=The Train Kept A Rollin'
TTITLE2=Cryin'
TTITLE3=Mama Kin
TTITLE4=One Way Street
TTITLE5=Back in the Saddle
TTITLE6=Sweet Emotion
TTITLE7=Rag Doll
TTITLE8=Last Child
TTITLE9=Rats in the Cellar
TTITLE10=Dream On
TTITLE11=Dude (Looks Like a Lady)
EXTD=YEAR: 2002 ID3G:  89 Bob Warren   Drums \nPat Bergeson   Harmonica \nDenn
EXTD=is Crouch   Double Bass \nTim Crouch   Fiddle \nCharlie Cushman   5-strin
EXTD=g Banjo \nBrad Davis   Acoustic Guitar \nDavid Grier   Acoustic Guitar \n
EXTD=Byron House   Double Bass \nRob Ickes   Dobro \nPat McGrath   Guitar \nDa
EXTD=vid Spicher   Bass \nBryan Sutton   Acoustic Guitar \nBrent Truitt   Acou
EXTD=stic Guitar, Mandolin, Papoose, Engineer, Producer, Mixing \nRobby Turner
EXTD=Steel Guitar \nScott Vestal   5-string Banjo \nKarrie M. Mi
EXTT0=
EXTT1=
EXTT2=
EXTT3=
EXTT4=
EXTT5=
EXTT6=
EXTT7=
EXTT8=
EXTT9=
EXTT10=
EXTT11=
PLAYORDER=
